<svg xmlns:dc="http://purl.org/dc/elements/1.1/" xmlns:cc="http://creativecommons.org/ns#" xmlns:rdf="http://www.w3.org/1999/02/22-rdf-syntax-ns#" xmlns:svg="http://www.w3.org/2000/svg" xmlns="http://www.w3.org/2000/svg" xmlns:sodipodi="http://sodipodi.sourceforge.net/DTD/sodipodi-0.dtd" xmlns:inkscape="http://www.inkscape.org/namespaces/inkscape" width="95" height="95" viewBox="0 0 64 64" version="1.1" x="0" y="0" id="a1491216280072"><g transform="translate(0,-988.36216)"><path d="M61.26 1020.36A29.26 29.26 0 0 1 32 1049.62 29.26 29.26 0 0 1 2.74 1020.36 29.26 29.26 0 0 1 32 991.11a29.26 29.26 0 0 1 29.26 29.26z" style="display:inline;fill:none;stroke-linecap:square;stroke-linejoin:round;stroke-miterlimit:11.2;stroke-width:5.49;stroke:#363636"/><g transform="translate(-0.66461183,2.99706)"><path d="m11.67 1016.84a10.46 15.46 0 0 1 10.33-13.01 10.46 15.46 0 0 1 10.33 13.01M53.05 1017.35 53.05 1017.35a10.46 15.46 0 0 1-10.33 13.01 10.46 15.46 0 0 1-10.33-13.01" style="display:inline;fill:none;stroke-linecap:round;stroke-linejoin:round;stroke-miterlimit:11.2;stroke-width:4;stroke:#4a4a4a"/></g></g></svg>