<svg xmlns="http://www.w3.org/2000/svg" height="60" id="t1491216280072" width="305"><path fill="#4a4a4a" d="M43.31 40.11c0-3.91-2.05-6.93-5.81-8.49 -2.46-1.01-4.84-1.04-5.1-1.04 0 0-1.49-0.04-2.9-0.6 -1.94-0.78-2.2-1.97-2.2-3.02 0 0 0.07-1.45 1.08-2.46 0.86-0.86 2.2-1.27 4.02-1.27 2.83 0 3.84 1.23 4.36 2.16 0.37 0.74 0.56 1.49 0.67 2.01l0 0.11c0.07 0.3 0.34 0.56 0.63 0.6l4.51 0c0.41 0 0.71-0.34 0.71-0.78l0-0.07c-0.15-1.49-0.74-4.51-3.09-6.89 -2.42-2.46-5.59-2.94-7.78-2.94 -3.43 0-6.18 1.01-8.12 2.98 -2.72 2.72-2.79 6.18-2.79 6.55 0 3.91 2.05 6.89 5.81 8.42 2.46 0.97 4.84 1.01 5.1 1.01 0 0 1.49 0.04 2.9 0.63 1.94 0.78 2.2 2.01 2.2 3.05 0 0-0.07 0.93-0.6 1.79 -0.78 1.27-2.23 1.9-4.51 1.9 -2.12 0-3.58-0.67-4.36-1.97 -0.37-0.56-0.56-1.19-0.63-1.64 0-0.04-0.04-0.07-0.04-0.11l0-0.04c-0.07-0.3-0.3-0.48-0.6-0.52l-4.58 0c-0.37 0.04-0.67 0.37-0.67 0.74 0 0.07 0.04 0.15 0.04 0.22 0.11 0.97 0.45 2.5 1.3 4.06 1.82 3.24 5.21 5.06 9.53 5.06 5.47 0 8.16-2.53 9.46-4.69 1.42-2.27 1.45-4.51 1.45-4.77zM67.93 22.57l0-4.36c0-0.41-0.41-0.71-0.89-0.71l-20.18 0c-0.41 0-0.74 0.3-0.74 0.71l0 4.36c0 0.41 0.34 0.74 0.74 0.74l7.26 0 0 25.29c0 0.48 0.34 0.89 0.71 0.89l4.39 0c0.37 0 0.71-0.41 0.71-0.89l0-25.29 7.11 0c0.48 0 0.89-0.34 0.89-0.74zM93.48 48.34l0.04 0.07c0.07 0.11 0.07 0.22 0.07 0.34 0 0.45-0.3 0.78-0.71 0.78l-4.99 0c-0.26 0-0.48-0.15-0.6-0.34l-0.07-0.11 -6.37-11.25 -0.78-1.42 -2.79 0 0 12.36c0 0.41-0.34 0.74-0.71 0.74l-4.36 0c-0.41 0-0.74-0.34-0.74-0.74l0-18.17 5.33 0 -4.95-8.71 0-0.04 -0.37-0.67 0-2.94c0-0.37 0.34-0.71 0.74-0.71l10.87 0c3.39 0 6.33 0.93 8.42 2.72 2.05 1.71 3.24 4.17 3.24 6.74 0 3.91-2.79 7.9-8.19 9.09l0.19 0.34 0.82 1.42zM82.68 29.23l0.78 1.38c0.37 0 0.74-0.04 1.08-0.07 3.02-0.41 4.36-2.05 4.36-3.54 0-1.75-1.79-3.65-5.81-3.65l-3.72 0zM120.48 37.13l0 4.36c0 0.41-0.34 0.71-0.74 0.71l-1.01 0 1.56 6.22 0.04 0.19 0 0.07c0 0.45-0.3 0.78-0.71 0.78l-4.51 0c-0.3 0-0.56-0.22-0.67-0.52l-0.04-0.11 -1.64-6.63 -6.37 0 -1.64 6.67s-0.04 0.04-0.04 0.07c-0.07 0.3-0.37 0.52-0.67 0.52l-4.51 0c-0.37 0-0.71-0.34-0.71-0.78l0-0.15c0.04 0 0.04-0.04 0.04-0.07l7.56-30.2 0.04-0.22c0.11-0.26 0.37-0.45 0.67-0.45l4.88 0c0.3 0 0.56 0.19 0.67 0.45l0.04 0.19 4.54 18.21 2.46 0c0.41 0 0.74 0.3 0.74 0.71zM107.85 36.42l3.46 0 -1.71-6.89zM146.77 39.51l0-21.23c0-0.41-0.34-0.78-0.71-0.78l-4.39 0c-0.37 0-0.71 0.37-0.71 0.78l0 21.23c0 4.06-4.58 4.21-5.1 4.21s-5.1-0.15-5.1-4.21l0-21.23c0-0.41-0.3-0.78-0.71-0.78l-4.36 0c-0.41 0-0.74 0.37-0.74 0.78l0 21.23c0 3.09 1.27 5.77 3.61 7.63 1.97 1.53 4.54 2.38 7.3 2.38s5.33-0.86 7.3-2.38c2.35-1.86 3.61-4.54 3.61-7.63zM151.24 17.54l0 31.25c0 0.41 0.34 0.74 0.71 0.74l4.32 0c0.41 0 0.71-0.34 0.71-0.74l0-17.43 6.44 6.44 6.44-6.44 0 17.43c0 0.41 0.34 0.74 0.74 0.74l4.28 0c0.41 0 0.71-0.34 0.71-0.74l0-31.25 -12.18 12.18zM200.51 18.29c0-0.45-0.34-0.78-0.74-0.78l-4.47 0c-0.34 0-0.6 0.22-0.71 0.56l0 0.07 -4.88 19.37 -4.84-19.37 0-0.07c-0.11-0.34-0.37-0.56-0.71-0.56l-4.51 0c-0.37 0-0.71 0.34-0.71 0.78l0 0.15c0 0.04 0.04 0.04 0.04 0.07l7.67 30.46c0.07 0.34 0.34 0.56 0.67 0.56l4.8 0c0.3 0 0.6-0.22 0.67-0.52 0-0.04 0.04-0.07 0.04-0.11l7.63-30.39c0.04-0.07 0.04-0.15 0.04-0.22zM225.68 48.79l0-4.36c0-0.41-0.34-0.74-0.71-0.74l-15.31 0 0-7.26 13.82 0c0.41 0 0.74-0.34 0.74-0.74l0-4.36c0-0.41-0.34-0.71-0.74-0.71l-13.82 0 0-7.3 14.56 0c0.41 0 0.74-0.3 0.74-0.71l0-4.36c0-0.41-0.34-0.74-0.74-0.74l-19.63 0c-0.41 0-0.74 0.34-0.74 0.74l0 30.54c0 0.41 0.34 0.74 0.74 0.74l20.37 0c0.37 0 0.71-0.34 0.71-0.74zM251.79 48.34l0.04 0.07c0.07 0.11 0.07 0.22 0.07 0.34 0 0.45-0.3 0.78-0.71 0.78l-4.99 0c-0.26 0-0.48-0.15-0.6-0.34l-0.07-0.11 -6.37-11.25 -0.78-1.42 -2.79 0 0 12.36c0 0.41-0.34 0.74-0.71 0.74l-4.36 0c-0.41 0-0.74-0.34-0.74-0.74l0-18.17 5.33 0 -4.95-8.71 0-0.04 -0.37-0.67 0-2.94c0-0.37 0.34-0.71 0.74-0.71l10.87 0c3.39 0 6.33 0.93 8.42 2.72 2.05 1.71 3.24 4.17 3.24 6.74 0 3.91-2.79 7.9-8.19 9.09l0.19 0.34 0.82 1.42zM240.99 29.23l0.78 1.38c0.37 0 0.74-0.04 1.08-0.07 3.02-0.41 4.36-2.05 4.36-3.54 0-1.75-1.79-3.65-5.81-3.65l-3.72 0zM278.98 48.75c0-0.15-0.04-0.3-0.07-0.41l-0.11-0.11 -9.35-13.18 9.09-16.35 0.07-0.11c0.04-0.11 0.07-0.22 0.07-0.34 0-0.41-0.34-0.74-0.74-0.74l-4.95 0c-0.3 0-0.52 0.15-0.67 0.41l-5.88 10.61 -2.94-10.5c-0.07-0.3-0.37-0.52-0.67-0.52l-4.54 0c-0.41 0-0.74 0.34-0.74 0.74l0 0.07 0.07 0.3 3.35 11.95 -3.43 0 0 18.17c0 0.41 0.34 0.74 0.74 0.74l4.36 0c0.41 0 0.71-0.34 0.71-0.74l0-12.25 9.01 12.66 0.04 0.07c0.15 0.19 0.34 0.26 0.56 0.26l5.33 0c0.41 0 0.71-0.34 0.71-0.74z"/></svg>