<?xml version="1.0" standalone="no"?>
<!DOCTYPE svg PUBLIC "-//W3C//DTD SVG 20010904//EN"
 "http://www.w3.org/TR/2001/REC-SVG-20010904/DTD/svg10.dtd">
<svg version="1.0" xmlns="http://www.w3.org/2000/svg"
 width="700.000000pt" height="700.000000pt" viewBox="0 0 700.000000 700.000000"
 preserveAspectRatio="xMidYMid meet">
<metadata>
Created by potrace 1.11, written by Peter Selinger 2001-2013
</metadata>
<g transform="translate(0.000000,700.000000) scale(0.100000,-0.100000)"
fill="#000000" stroke="none">
<path d="M3298 6995 c-2 -1 -41 -6 -88 -9 -47 -3 -95 -8 -107 -10 -12 -3 -46
-7 -76 -10 -45 -5 -116 -18 -287 -52 -115 -23 -343 -93 -495 -152 -182 -70
-513 -232 -523 -254 -2 -5 -8 -8 -13 -8 -5 0 -55 -30 -111 -66 -481 -312 -857
-712 -1141 -1213 -65 -113 -101 -189 -198 -408 -11 -23 -19 -48 -19 -55 0 -8
-4 -18 -9 -23 -9 -10 -72 -200 -110 -330 -25 -88 -66 -286 -81 -390 -6 -44
-13 -93 -15 -110 -14 -94 -20 -215 -20 -415 1 -253 10 -367 45 -570 5 -30 12
-68 14 -85 3 -16 19 -84 35 -150 41 -164 89 -314 160 -500 53 -137 190 -403
286 -554 209 -330 413 -561 741 -841 215 -184 619 -420 919 -537 151 -59 370
-130 455 -148 8 -2 35 -8 60 -14 53 -14 69 -17 175 -37 44 -8 102 -17 130 -20
27 -3 55 -7 62 -9 77 -25 769 -25 812 -1 3 2 33 6 66 10 69 7 99 12 255 42 73
14 303 79 416 118 238 82 491 200 682 319 45 29 90 57 100 62 184 107 505 383
689 592 32 36 65 74 74 83 31 33 166 215 226 305 157 234 320 564 399 805 61
184 121 416 140 535 4 28 9 57 11 65 1 8 10 74 20 145 25 188 23 685 -2 810
-2 11 -7 39 -9 63 -54 442 -253 984 -515 1397 -68 109 -226 328 -262 365 -8 8
-39 44 -69 79 -490 568 -1257 995 -2020 1126 -148 25 -192 31 -290 41 -54 5
-507 14 -512 9z m477 -608 c17 -3 53 -8 80 -12 218 -26 484 -94 695 -177 696
-274 1232 -769 1557 -1439 149 -305 248 -660 280 -1004 12 -122 8 -479 -6
-580 -62 -445 -188 -813 -399 -1165 -65 -108 -155 -244 -172 -260 -3 -3 -18
-23 -34 -45 -17 -22 -61 -76 -100 -120 -414 -470 -979 -795 -1606 -925 -58
-12 -123 -24 -145 -26 -22 -3 -45 -7 -52 -9 -52 -18 -485 -27 -628 -12 -959
95 -1795 630 -2259 1448 -84 147 -190 385 -236 529 -17 53 -58 197 -66 230 -4
19 -8 37 -9 40 -52 220 -70 380 -70 640 0 278 30 518 91 730 103 357 223 622
406 894 161 239 294 387 552 611 66 57 286 210 388 268 84 49 261 134 353 172
50 20 99 40 110 45 45 20 294 93 360 106 11 2 40 8 65 14 87 19 208 37 335 49
77 8 463 6 510 -2z"/>
<path d="M2230 5193 c-280 -37 -536 -176 -739 -401 -66 -73 -170 -209 -184
-242 -4 -8 -18 -33 -32 -55 -94 -153 -190 -404 -239 -627 -34 -155 -36 -170
-42 -273 -4 -79 -2 -95 18 -135 83 -163 316 -156 388 12 11 27 23 66 25 86 17
165 70 367 142 542 112 271 295 490 495 591 184 93 387 88 568 -14 79 -44 125
-81 206 -163 194 -198 336 -514 394 -877 29 -179 46 -215 124 -264 33 -22 53
-27 106 -27 99 -1 163 40 200 127 18 42 21 63 17 121 -8 95 -31 220 -62 341
-15 55 -28 107 -30 115 -17 83 -143 368 -212 480 -219 352 -494 566 -833 646
-60 14 -252 25 -310 17z"/>
<path d="M5650 3704 c-40 -17 -96 -70 -114 -109 -43 -91 -18 -200 60 -261 144
-113 354 -9 349 173 -4 147 -162 252 -295 197z"/>
</g>
</svg>
